<svg xmlns="http://www.w3.org/2000/svg" width="485.8" height="130" viewBox="0 0 485.8 130" role="img"><title>tessera</title><rect x="0.00" y="8.35" width="113.30" height="34.39" rx="4.05" fill="#ffffff"/><rect x="0.00" y="54.88" width="50.58" height="66.77" rx="4.05" fill="#ffffff"/><rect x="62.72" y="54.88" width="50.58" height="66.77" rx="4.05" fill="#ffffff"/><path d="M27.9 0Q20.3 0 16.7 -3.45Q13.1 -6.9 13.1 -14.4V-44.5H5V-53.2H13.1V-65.7H23.7V-53.2H37.8V-44.5H23.7V-15.2Q23.7 -11.5 25.3 -10.1Q26.9 -8.7 30.2 -8.7H37.8V0ZM65.9 1.2Q58.1 1.2 52.45 -2.25Q46.8 -5.7 43.75 -11.95Q40.7 -18.2 40.7 -26.6Q40.7 -35 43.75 -41.25Q46.8 -47.5 52.4 -50.95Q58 -54.4 65.6 -54.4Q72.8 -54.4 78.3 -51.05Q83.8 -47.7 86.85 -41.4Q89.9 -35.1 89.9 -26.2V-23.5H51.7Q52.1 -15.7 55.85 -11.8Q59.6 -7.9 66 -7.9Q70.7 -7.9 73.75 -10.05Q76.8 -12.2 78.1 -16L89.1 -15.3Q87 -7.8 80.85 -3.3Q74.7 1.2 65.9 1.2ZM51.7 -31.5H78.7Q78.2 -38.6 74.6 -42Q71 -45.4 65.6 -45.4Q59.9 -45.4 56.25 -41.85Q52.6 -38.3 51.7 -31.5ZM117.6 1.2Q106 1.2 100.2 -3.85Q94.4 -8.9 93.8 -16.8L104.7 -17.3Q105.4 -12.9 108.3 -10.3Q111.2 -7.7 117.6 -7.7Q122.6 -7.7 125.25 -9.3Q127.9 -10.9 127.9 -14.4Q127.9 -16.4 127 -17.7Q126.1 -19 123.5 -19.95Q120.9 -20.9 115.8 -21.8Q108 -23.3 103.65 -25.35Q99.3 -27.4 97.5 -30.45Q95.7 -33.5 95.7 -37.9Q95.7 -45.1 101.2 -49.75Q106.7 -54.4 117.1 -54.4Q124.4 -54.4 129.1 -51.95Q133.8 -49.5 136.2 -45.5Q138.6 -41.5 139.1 -36.9L128.2 -36.3Q127.9 -40.1 125.35 -42.8Q122.8 -45.5 116.9 -45.5Q111.7 -45.5 109.2 -43.5Q106.7 -41.5 106.7 -38.3Q106.7 -34.8 109.05 -33.05Q111.4 -31.3 117.9 -30.3Q126 -29 130.55 -26.95Q135.1 -24.9 137 -21.85Q138.9 -18.8 138.9 -14.5Q138.9 -7 133 -2.9Q127.1 1.2 117.6 1.2ZM166.8 1.2Q155.2 1.2 149.4 -3.85Q143.6 -8.9 143 -16.8L153.9 -17.3Q154.6 -12.9 157.5 -10.3Q160.4 -7.7 166.8 -7.7Q171.8 -7.7 174.45 -9.3Q177.1 -10.9 177.1 -14.4Q177.1 -16.4 176.2 -17.7Q175.3 -19 172.7 -19.95Q170.1 -20.9 165 -21.8Q157.2 -23.3 152.85 -25.35Q148.5 -27.4 146.7 -30.45Q144.9 -33.5 144.9 -37.9Q144.9 -45.1 150.4 -49.75Q155.9 -54.4 166.3 -54.4Q173.6 -54.4 178.3 -51.95Q183 -49.5 185.4 -45.5Q187.8 -41.5 188.3 -36.9L177.4 -36.3Q177.1 -40.1 174.55 -42.8Q172 -45.5 166.1 -45.5Q160.9 -45.5 158.4 -43.5Q155.9 -41.5 155.9 -38.3Q155.9 -34.8 158.25 -33.05Q160.6 -31.3 167.1 -30.3Q175.2 -29 179.75 -26.95Q184.3 -24.9 186.2 -21.85Q188.1 -18.8 188.1 -14.5Q188.1 -7 182.2 -2.9Q176.3 1.2 166.8 1.2ZM217.4 1.2Q209.6 1.2 203.95 -2.25Q198.3 -5.7 195.25 -11.95Q192.2 -18.2 192.2 -26.6Q192.2 -35 195.25 -41.25Q198.3 -47.5 203.9 -50.95Q209.5 -54.4 217.1 -54.4Q224.3 -54.4 229.8 -51.05Q235.3 -47.7 238.35 -41.4Q241.4 -35.1 241.4 -26.2V-23.5H203.2Q203.6 -15.7 207.35 -11.8Q211.1 -7.9 217.5 -7.9Q222.2 -7.9 225.25 -10.05Q228.3 -12.2 229.6 -16L240.6 -15.3Q238.5 -7.8 232.35 -3.3Q226.2 1.2 217.4 1.2ZM203.2 -31.5H230.2Q229.7 -38.6 226.1 -42Q222.5 -45.4 217.1 -45.4Q211.4 -45.4 207.75 -41.85Q204.1 -38.3 203.2 -31.5ZM248.6 0V-53.2H258.3L258.6 -43.1Q260.1 -48.3 263.25 -50.75Q266.4 -53.2 271.3 -53.2H276.4V-43.7H271.3Q265.2 -43.7 262.2 -40.7Q259.2 -37.7 259.2 -31.4V0ZM298.4 1.2Q290.1 1.2 285.15 -2.6Q280.2 -6.4 280.2 -13.3Q280.2 -20.1 284.35 -24Q288.5 -27.9 297.2 -29.6L315.5 -33.1Q315.5 -45.4 304 -45.4Q298.9 -45.4 296 -43.1Q293.1 -40.8 292 -36.5L281.1 -37.2Q282.6 -45.2 288.55 -49.8Q294.5 -54.4 304 -54.4Q314.8 -54.4 320.45 -48.65Q326.1 -42.9 326.1 -32.5V-11.8Q326.1 -9.9 326.75 -9.15Q327.4 -8.4 328.9 -8.4H330.8V0Q329.4 0.3 326.9 0.3Q322.4 0.3 319.75 -1.55Q317.1 -3.4 316.4 -7.9V-8.2Q314.4 -4 309.5 -1.4Q304.6 1.2 298.4 1.2ZM300.1 -7.2Q307.3 -7.2 311.4 -11.3Q315.5 -15.4 315.5 -21.7V-25.1L299.9 -22.1Q295.1 -21.2 293.15 -19.25Q291.2 -17.3 291.2 -14.3Q291.2 -10.9 293.55 -9.05Q295.9 -7.2 300.1 -7.2Z" fill="#ffffff" transform="translate(153.30 100.50)"/></svg>
